PathFileType	4	(X/Y/Z)	subject01_static.trc
DataRate	CameraRate	NumFrames	NumMarkers	Units	OrigDataRate	OrigDataStartFrame	OrigNumFrames
60.00	60.00	       4	49	mm	60.00	76	       300
Frame#	Time	R.ASIS			L.ASIS			V.Sacral			R.Thigh.Upper			R.Thigh.Front			R.Thigh.Rear			L.Thigh.Upper			L.Thigh.Front			L.Thigh.Rear			R.Knee.Lat			R.Knee.Med			L.Knee.Lat			L.Knee.Med			R.Shank.Upper			R.Shank.Front			R.Shank.Rear			L.Shank.Upper			L.Shank.Front			L.Shank.Rear			R.Ankle.Lat			R.Ankle.Med			L.Ankle.Lat			L.Ankle.Med			R.Heel			R.Midfoot.Sup			R.Midfoot.Lat			R.Toe.Tip			L.Heel			L.Midfoot.Sup			L.Midfoot.Lat			L.Toe.Tip			Sternum			R.Acromium			L.Acromium			R.Bicep			L.Bicep			R.Elbow			L.Elbow			R.Wrist.Med			R.Wrist.Lat			L.Wrist.Med			L.Wrist.Lat			R.Toe.Lat			R.Toe.Med			L.Toe.Lat			L.Toe.Med			R.Temple			L.Temple			Top.Head			
		X1	Y1	Z1	X2	Y2	Z2	X3	Y3	Z3	X4	Y4	Z4	X5	Y5	Z5	X6	Y6	Z6	X7	Y7	Z7	X8	Y8	Z8	X9	Y9	Z9	X10	Y10	Z10	X11	Y11	Z11	X12	Y12	Z12	X13	Y13	Z13	X14	Y14	Z14	X15	Y15	Z15	X16	Y16	Z16	X17	Y17	Z17	X18	Y18	Z18	X19	Y19	Z19	X20	Y20	Z20	X21	Y21	Z21	X22	Y22	Z22	X23	Y23	Z23	X24	Y24	Z24	X25	Y25	Z25	X26	Y26	Z26	X27	Y27	Z27	X28	Y28	Z28	X29	Y29	Z29	X30	Y30	Z30	X31	Y31	Z31	X32	Y32	Z32	X33	Y33	Z33	X34	Y34	Z34	X35	Y35	Z35	X36	Y36	Z36	X37	Y37	Z37	X38	Y38	Z38	X39	Y39	Z39	X40	Y40	Z40	X41	Y41	Z41	X42	Y42	Z42	X43	Y43	Z43	X44	Y44	Z44	X45	Y45	Z45	X46	Y46	Z46	X47	Y47	Z47	X48	Y48	Z48	X49	Y49	Z49	

76	1.250000	605.861570	1072.926510	157.297560	607.444030	1060.456050	-104.720210	408.692720	1079.394410	35.802750	543.146360	756.608520	224.020070	593.303830	681.988220	134.050810	522.479980	636.940730	226.481670	515.875920	767.892400	-168.426160	604.594910	718.481080	-111.910460	504.856260	658.924070	-160.719710	475.709010	553.564640	217.070160	468.944400	525.471740	98.078840	476.804050	528.581910	-150.518390	498.693120	519.770020	-36.455830	441.213990	469.098240	236.015300	513.413820	424.156370	184.090150	452.928250	384.122960	253.258120	467.662170	450.354770	-170.689930	516.905330	393.226840	-127.889970	445.641600	409.364010	-181.218310	437.596950	98.095700	255.453310	443.838200	103.612140	165.085360	442.973880	93.640570	-172.212040	464.947850	108.894710	-81.831410	366.575990	70.653340	210.264050	507.305600	80.239920	164.892940	509.389250	63.669380	272.894680	657.167910	50.652440	195.336530	371.738830	75.471070	-115.036960	544.812990	77.038730	-94.775080	523.052860	65.898390	-191.980930	654.346800	48.445170	-127.569560	605.321780	1425.626830	23.847520	487.294680	1550.288210	192.894380	486.595760	1561.243410	-147.811020	521.965150	1504.998780	357.967010	531.103270	1508.033690	-325.522640	517.233640	1473.128660	461.447940	495.888120	1475.981200	-426.923890	668.358090	1467.853640	687.140320	608.643250	1477.410160	711.277280	624.579650	1443.917970	-644.741940	552.531430	1448.118290	-663.880550	599.731570	39.642370	276.690490	593.852360	48.810360	168.064070	585.345090	39.916630	-201.712390	605.873110	51.627360	-101.023740	607.288570	1655.162840	126.717400	666.282960	1644.904540	1.023720	589.551150	1814.464110	30.642870	
77	1.267000	605.856630	1072.933720	157.330250	607.346250	1060.431520	-104.677120	408.620640	1079.365230	35.827970	543.146000	756.599850	223.988430	593.288330	681.984010	134.043150	522.451970	636.935490	226.492360	515.873600	767.902280	-168.403960	604.572080	718.467770	-111.917640	504.845210	658.939390	-160.712780	475.659450	553.581850	217.064090	468.949980	525.496220	98.064190	476.797790	528.578800	-150.496520	498.689760	519.772340	-36.455710	441.194000	469.099370	236.036150	513.412900	424.153380	184.092030	452.835510	384.120000	253.259430	467.612850	450.359680	-170.686740	516.885930	393.194640	-127.902710	445.639400	409.474550	-181.184810	437.617160	98.099330	255.496510	443.875430	103.584970	165.074750	442.973880	93.640570	-172.212040	464.941710	108.867790	-81.845200	366.575990	70.653370	210.264100	507.323430	80.247910	164.897050	509.389040	63.653190	272.882780	657.167910	50.652440	195.336530	371.739750	75.467080	-115.033490	544.812990	77.038730	-94.775080	523.027470	65.888500	-191.988390	654.344360	48.415550	-127.583830	605.323910	1425.638060	23.855560	487.295900	1550.292600	192.901870	486.602970	1561.253420	-147.816120	521.913390	1505.006350	358.012360	531.156010	1508.094480	-325.521640	517.225650	1473.123170	461.445770	495.968600	1476.044800	-426.939390	668.384090	1467.870120	687.152890	608.632140	1477.406860	711.309810	624.553650	1444.022950	-644.720150	552.760930	1448.181030	-663.844180	599.646850	39.650290	276.674410	593.827330	48.783080	168.049960	585.345090	39.916630	-201.712390	605.899230	51.598070	-101.007300	607.289250	1655.133910	126.709030	666.318730	1644.768070	0.989360	589.752010	1814.391970	30.663830	
78	1.283000	605.865540	1072.932740	157.329560	607.290710	1060.427370	-104.627500	408.532100	1079.357180	35.855360	543.149050	756.600650	223.978680	593.284180	681.981140	134.040270	522.420170	636.933230	226.516720	515.867980	767.923100	-168.382600	604.589660	718.433290	-111.903430	504.837100	658.962710	-160.689790	475.592500	553.595760	217.058070	468.974850	525.538570	98.048930	476.794130	528.583740	-150.464230	498.652860	519.779850	-36.488590	441.156280	469.115970	236.072620	513.403870	424.137940	184.105970	452.745880	384.121730	253.259220	467.582610	450.365970	-170.668470	516.877260	393.178220	-127.909290	445.663670	409.608920	-181.161100	437.644070	98.104160	255.554080	443.959630	103.565120	165.080840	442.973880	93.640570	-172.212040	464.942500	108.871230	-81.843440	366.577270	70.653400	210.264830	507.350280	80.287320	164.910080	509.369690	63.664790	272.868160	657.167910	50.652440	195.336530	371.649050	75.490730	-115.207600	544.812990	77.038730	-94.775080	523.210510	65.984630	-191.926510	654.372680	48.418780	-127.562370	605.366390	1425.665650	23.855080	487.298680	1550.297490	192.911610	486.615170	1561.265630	-147.819690	521.856020	1505.023680	358.044490	531.190000	1508.157230	-325.543150	517.239260	1473.129520	461.445190	496.009890	1476.142330	-426.964200	668.384950	1467.877080	687.166440	608.718510	1477.425540	711.298030	624.551880	1444.125980	-644.671450	553.036380	1448.214970	-663.828920	599.730410	39.643000	276.690580	593.799990	48.719520	168.075290	585.345090	39.916630	-201.712390	605.922610	51.577270	-100.975660	607.279480	1655.136600	126.702030	666.300540	1644.662600	0.944260	589.968440	1814.346920	30.672240	
79	1.300000	605.864930	1072.929690	157.315310	607.265870	1060.452390	-104.590310	408.441960	1079.370850	35.874230	543.155880	756.611690	223.989150	593.294190	681.981380	134.043990	522.364870	636.946290	226.552860	515.851200	767.948180	-168.354520	604.622560	718.414610	-111.866590	504.837650	658.981450	-160.670780	475.519230	553.605960	217.052670	468.993260	525.557190	98.049970	476.773620	528.602170	-150.425290	498.602660	519.797000	-36.520450	441.075990	469.146480	236.087300	513.395750	424.124480	184.118300	452.674130	384.126980	253.257780	467.576320	450.372250	-170.644130	516.886540	393.187500	-127.904390	445.711300	409.723360	-181.151120	437.659970	98.107020	255.588010	444.056090	103.553600	165.094890	442.973880	93.640570	-172.212040	464.951630	108.911380	-81.822860	366.581880	70.653070	210.266950	507.365200	80.336730	164.924220	509.336640	63.702360	272.857730	657.167910	50.652440	195.336530	371.493870	75.517010	-115.456790	544.812990	77.038730	-94.775080	523.420590	66.109210	-191.850920	654.394290	48.423660	-127.544890	605.440550	1425.707760	23.850460	487.308810	1550.299070	192.923980	486.639800	1561.278810	-147.820500	521.784120	1505.031740	358.068210	531.216670	1508.212280	-325.570920	517.233150	1473.131960	461.445040	496.030150	1476.234620	-426.985470	668.368040	1467.879270	687.177550	608.831790	1477.458620	711.265750	624.609920	1444.200810	-644.593930	553.313480	1448.208370	-663.773500	599.903200	39.616780	276.712190	593.778750	48.665590	168.110760	585.345090	39.916630	-201.712390	605.931460	51.575350	-100.944600	607.244140	1655.148800	126.699330	666.236880	1644.597780	0.896790	590.169070	1814.331180	30.664310	
